<?xml version="1.0" encoding="UTF-8" standalone="no"?>
<!-- Created with Inkscape (http://www.inkscape.org/) -->

<svg
   xmlns:dc="http://purl.org/dc/elements/1.1/"
   xmlns:cc="http://creativecommons.org/ns#"
   xmlns:rdf="http://www.w3.org/1999/02/22-rdf-syntax-ns#"
   xmlns:svg="http://www.w3.org/2000/svg"
   xmlns="http://www.w3.org/2000/svg"
   xmlns:sodipodi="http://sodipodi.sourceforge.net/DTD/sodipodi-0.dtd"
   xmlns:inkscape="http://www.inkscape.org/namespaces/inkscape"
   width="1333.9755"
   height="591.61908"
   id="svg2"
   version="1.1"
   inkscape:version="0.48.4 r9939"
   sodipodi:docname="hover_collapse.svg">
  <defs
     id="defs4" />
  <sodipodi:namedview
     id="base"
     pagecolor="#ffffff"
     bordercolor="#666666"
     borderopacity="1.0"
     inkscape:pageopacity="0.0"
     inkscape:pageshadow="2"
     inkscape:zoom="0.35000001"
     inkscape:cx="991.1854"
     inkscape:cy="248.54419"
     inkscape:document-units="px"
     inkscape:current-layer="layer1"
     showgrid="false"
     inkscape:window-width="1074"
     inkscape:window-height="632"
     inkscape:window-x="45"
     inkscape:window-y="60"
     inkscape:window-maximized="0"
     fit-margin-top="0"
     fit-margin-left="0"
     fit-margin-right="0"
     fit-margin-bottom="0" />
  <metadata
     id="metadata7">
    <rdf:RDF>
      <cc:Work
         rdf:about="">
        <dc:format>image/svg+xml</dc:format>
        <dc:type
           rdf:resource="http://purl.org/dc/dcmitype/StillImage" />
        <dc:title />
      </cc:Work>
    </rdf:RDF>
  </metadata>
  <g
     inkscape:label="Layer 1"
     inkscape:groupmode="layer"
     id="layer1"
     transform="translate(-50.995931,-349.08956)">
    <g
       transform="matrix(2.0835515,0,0,2.0835515,-374.30727,-120.77493)"
       style="font-size:40px;font-style:normal;font-weight:normal;line-height:125%;letter-spacing:0px;word-spacing:0px;fill:#000000;fill-opacity:1;stroke:none;font-family:Sans"
       id="flowRoot2985">
      <path
         d="m 336.45312,419.80076 0,-66.09375 c -9e-5,-2.39056 0.0233,-4.82806 0.0703,-7.3125 0.0468,-2.4843 0.11709,-4.75774 0.21093,-6.82032 0.0937,-2.39054 0.21085,-4.71085 0.35157,-6.96093 -0.65635,2.39071 -1.33604,4.75789 -2.03907,7.10156 -0.60946,2.0157 -1.28915,4.17195 -2.03906,6.46875 -0.70321,2.25007 -1.40634,4.28913 -2.10937,6.11719 l -25.59375,67.5 -9.42188,0 -25.94531,-67.5 c -0.28128,-0.70306 -0.58597,-1.52337 -0.91406,-2.46094 -0.28128,-0.93743 -0.60941,-1.9218 -0.98438,-2.95313 -0.32815,-1.07805 -0.67971,-2.15617 -1.05469,-3.23437 -0.32815,-1.12492 -0.65627,-2.22649 -0.98437,-3.30469 -0.7969,-2.48429 -1.57034,-5.06241 -2.32031,-7.73437 0.0469,2.62508 0.11716,5.22664 0.21093,7.80468 0.0937,2.20321 0.16404,4.52352 0.21094,6.96094 0.0469,2.3907 0.0703,4.50007 0.0703,6.32813 l 0,66.09375 -11.95312,0 0,-99.07032 17.64844,0 26.36718,68.69532 c 0.32807,0.93753 0.72651,2.15627 1.19532,3.65625 0.46869,1.45315 0.914,2.95315 1.33593,4.5 0.42182,1.54689 0.79682,3.02345 1.125,4.42968 0.37495,1.3594 0.63276,2.41408 0.77344,3.16407 0.14057,-0.74999 0.39838,-1.82811 0.77344,-3.23438 0.37494,-1.40623 0.79681,-2.88279 1.26562,-4.42969 0.51557,-1.54685 1.00775,-3.04685 1.47657,-4.5 0.46868,-1.45309 0.89056,-2.6484 1.26562,-3.58593 l 25.875,-68.69532 17.22656,0 0,99.07032 -12.09375,0"
         style="font-size:144px;font-variant:normal;font-stretch:normal;font-family:Liberation Sans;-inkscape-font-specification:Liberation Sans"
         id="path2992"
         inkscape:connector-curvature="0" />
      <path
         d="m 379.90625,384.43357 c -2e-5,3.98441 0.39842,7.66409 1.19531,11.03906 0.84373,3.32815 2.10935,6.21096 3.79688,8.64844 1.73435,2.39064 3.93747,4.26564 6.60937,5.625 2.67184,1.31251 5.88278,1.96876 9.63281,1.96875 5.48433,1e-5 9.86714,-1.10155 13.14844,-3.30469 3.32807,-2.20311 5.57807,-4.99217 6.75,-8.36719 l 11.10938,3.16407 c -0.79695,2.10939 -1.92195,4.2422 -3.375,6.39843 -1.40632,2.10939 -3.30475,4.03126 -5.69532,5.76563 -2.39068,1.6875 -5.39068,3.09375 -9,4.21875 -3.56255,1.07812 -7.87504,1.61718 -12.9375,1.61719 -11.25002,-1e-5 -19.82814,-3.35156 -25.73437,-10.05469 -5.85938,-6.70311 -8.78907,-16.66404 -8.78906,-29.88281 -10e-6,-7.12496 0.89062,-13.14839 2.67187,-18.07032 1.78124,-4.96868 4.21874,-8.99993 7.3125,-12.09375 3.09373,-3.09367 6.7031,-5.32023 10.82813,-6.67968 4.12497,-1.40618 8.53121,-2.1093 13.21875,-2.10938 6.37495,8e-5 11.69526,1.03133 15.96093,3.09375 4.31244,2.06257 7.75775,4.92195 10.33594,8.57813 2.62493,3.60943 4.47649,7.87505 5.55469,12.79687 1.12493,4.92192 1.68743,10.24223 1.6875,15.96094 l 0,1.6875 -54.28125,0 m 41.20312,-9.70313 c -0.70318,-8.01557 -2.74224,-13.8515 -6.11718,-17.50781 -3.37505,-3.70306 -8.22661,-5.55462 -14.55469,-5.55469 -2.10941,7e-5 -4.33597,0.35163 -6.67969,1.05469 -2.2969,0.65632 -4.42971,1.85163 -6.39844,3.58594 -1.96877,1.73444 -3.63283,4.10162 -4.99218,7.10156 -1.3594,2.95318 -2.13283,6.72661 -2.32032,11.32031 l 41.0625,0"
         style="font-size:144px;font-variant:normal;font-stretch:normal;font-family:Liberation Sans;-inkscape-font-specification:Liberation Sans"
         id="path2994"
         inkscape:connector-curvature="0" />
      <path
         d="m 498.66406,419.80076 0,-48.23438 c -6e-5,-3.70307 -0.28131,-6.79682 -0.84375,-9.28125 -0.51568,-2.48431 -1.38287,-4.4765 -2.60156,-5.97656 -1.2188,-1.54681 -2.83599,-2.62494 -4.85156,-3.23438 -1.9688,-0.65618 -4.42974,-0.9843 -7.38282,-0.98437 -3.00003,7e-5 -5.71878,0.53913 -8.15625,1.61719 -2.39065,1.03131 -4.45315,2.55475 -6.1875,4.57031 -1.68752,1.96881 -3.00002,4.42974 -3.9375,7.38281 -0.93752,2.9063 -1.40627,6.25786 -1.40625,10.05469 l 0,44.08594 -12.65625,0 0,-59.83594 c 0,-1.59369 -0.0234,-3.25775 -0.0703,-4.99219 -10e-6,-1.78118 -0.0234,-3.44524 -0.0703,-4.99219 -0.0469,-1.59367 -0.0938,-2.95305 -0.14063,-4.07812 -0.0469,-1.12493 -0.0937,-1.85149 -0.14062,-2.17969 l 11.95312,0 c 0.0469,0.23445 0.0937,0.86726 0.14063,1.89844 0.0469,1.03132 0.0937,2.22663 0.14062,3.58594 0.0937,1.31257 0.16405,2.67194 0.21094,4.07812 0.0469,1.35944 0.0703,2.50788 0.0703,3.44531 l 0.21094,0 c 1.21873,-2.20306 2.55467,-4.19524 4.00781,-5.97656 1.4531,-1.78118 3.1406,-3.28118 5.0625,-4.5 1.92185,-1.26555 4.12497,-2.22649 6.60938,-2.88281 2.48433,-0.70305 5.36714,-1.05461 8.64844,-1.05469 4.2187,8e-5 7.85151,0.5157 10.89843,1.54688 3.04682,1.03132 5.55463,2.62507 7.52344,4.78125 1.96869,2.15632 3.39837,4.94538 4.28906,8.36718 0.93743,3.37506 1.40618,7.40631 1.40625,12.09375 l 0,50.69532 -12.72656,0"
         style="font-size:144px;font-variant:normal;font-stretch:normal;font-family:Liberation Sans;-inkscape-font-specification:Liberation Sans"
         id="path2996"
         inkscape:connector-curvature="0" />
      <path
         d="m 542.89062,343.72263 0,48.23438 c -2e-5,3.70315 0.2578,6.79689 0.77344,9.28125 0.56248,2.48439 1.4531,4.50001 2.67188,6.04687 1.21872,1.50001 2.81247,2.57814 4.78125,3.23438 2.01559,0.60938 4.49996,0.91407 7.45312,0.91406 2.99996,1e-5 5.69527,-0.51562 8.08594,-1.54688 2.43745,-1.07811 4.49995,-2.60155 6.1875,-4.57031 1.73432,-2.01561 3.07026,-4.47654 4.00781,-7.38281 0.93745,-2.9531 1.4062,-6.3281 1.40625,-10.125 l 0,-44.08594 12.65625,0 0,59.83594 c -7e-5,1.59376 -7e-5,3.28126 0,5.0625 0.0468,1.73438 0.0937,3.39844 0.14063,4.99219 0.0468,1.54688 0.0937,2.88281 0.14062,4.00781 0.0468,1.125 0.0937,1.85156 0.14063,2.17969 l -11.95313,0 c -0.0469,-0.23438 -0.0938,-0.86719 -0.14062,-1.89844 -0.0469,-1.03125 -0.11725,-2.20312 -0.21094,-3.51563 -0.0469,-1.35936 -0.0938,-2.71874 -0.14063,-4.07812 -0.0469,-1.40624 -0.0704,-2.57811 -0.0703,-3.51563 l -0.21094,0 c -1.2188,2.20314 -2.55474,4.19533 -4.00781,5.97657 -1.45317,1.78125 -3.14067,3.30469 -5.0625,4.57031 -1.92192,1.21875 -4.12504,2.15625 -6.60937,2.8125 -2.48442,0.70312 -5.36723,1.05468 -8.64844,1.05469 -4.21878,-1e-5 -7.85159,-0.51563 -10.89844,-1.54688 -3.04689,-1.03125 -5.5547,-2.625 -7.52344,-4.78125 -1.96876,-2.15624 -3.42188,-4.92186 -4.35937,-8.29687 -0.89063,-3.37499 -1.33595,-7.42967 -1.33594,-12.16407 l 0,-50.69531 12.72656,0"
         style="font-size:144px;font-variant:normal;font-stretch:normal;font-family:Liberation Sans;-inkscape-font-specification:Liberation Sans"
         id="path2998"
         inkscape:connector-curvature="0" />
    </g>
    <path
       id="path3014"
       d="m 67.090704,583.03234 c -0.800357,-4.63047 -2.109253,-9.1571 -3.666916,-13.58539 -1.624755,-3.91635 -2.48989,-8.06395 -3.976537,-12.02355 -1.394614,-3.53122 -1.983407,-7.2767 -2.434652,-11.02327 -0.630905,-3.72518 -0.3675,-7.39051 0.33371,-11.07238 1.196884,-3.0175 1.539448,-6.24657 2.356032,-9.36145 0.665732,-3.23077 1.52985,-6.39505 2.444939,-9.56359 1.160602,-3.84678 2.251357,-7.70634 3.572648,-11.50344 1.328203,-4.37809 3.965998,-8.08641 6.60564,-11.75129 8.587608,-11.62611 20.989313,-20.57837 34.625672,-25.61539 4.00062,-1.18691 8.18877,-1.42514 12.32863,-1.69749 4.04553,-0.23775 8.0921,-0.45733 12.13771,-0.69399 3.89224,-0.63137 7.61559,-0.10559 11.46041,0.43289 3.7519,0.52068 7.52965,0.053 11.27245,0.53748 4.50508,0.93668 8.93273,-0.0367 13.3959,-0.69089 4.57119,-0.66009 9.18202,-1.00084 13.78809,-1.30951 5.29112,-0.72575 10.53647,-0.33354 15.82791,0.0481 5.31835,0.76688 10.42989,2.40382 15.60948,3.76868 6.58747,1.53952 12.65765,4.5729 19.03274,6.74054 4.42196,1.38036 8.45212,3.7515 12.97199,4.80051 3.95427,0.46782 7.65372,2.00066 11.51676,2.88732 3.87569,1.53184 7.94706,2.10048 12.07992,2.27052 4.48911,0.0625 8.97246,-0.24887 13.44947,-0.53786 4.74575,0.0785 9.26511,-1.07766 13.88399,-1.94735 7.30491,-1.11693 14.69012,-1.64618 22.05804,-2.16067 8.5336,-0.57649 17.06744,-1.15 25.60215,-1.70973 7.25551,-0.42903 14.5057,-0.93989 21.75882,-1.40545 5.2487,-0.35294 10.49632,-0.72165 15.74517,-1.07239 4.29351,-0.30045 8.59049,-0.54361 12.88665,-0.80094 5.04813,-0.0693 9.69968,-2.09203 14.4381,-3.57577 3.66877,-2.33988 7.75801,-3.20816 11.98286,-3.88385 4.72628,-0.81745 9.6193,-1.61966 14.17796,-3.16861 5.24779,-1.79072 10.82766,-2.29588 16.31439,-2.84709 5.91679,-0.54264 11.84474,-0.97501 17.77542,-1.3358 5.29654,-0.26108 10.58491,0.48037 15.89205,0.59336 5.8439,0.70114 11.69714,1.05485 17.53189,1.81973 5.21691,0.87799 10.62183,1.20422 15.76218,2.47563 3.82639,1.07971 7.55442,2.49057 11.35512,3.67772 3.90562,1.7593 7.81056,3.48719 11.73639,5.20074 2.74973,1.57874 5.50918,3.32113 8.52842,4.33431 3.51213,1.33635 6.91181,2.87035 10.3145,4.45739 3.54092,1.46135 7.17409,2.62988 10.84925,3.71073 3.97144,0.85147 8.00179,1.02302 12.00703,1.67909 4.09871,0.4488 8.15546,0.59772 12.22886,1.23864 4.10009,0.43852 8.156,0.60021 12.22848,1.24728 3.98538,0.62856 8.02223,0.60455 12.04203,0.48934 4.02408,-0.15655 8.0426,-0.42737 12.06109,-0.68586 4.24151,-0.0694 8.33889,-0.5914 12.46355,-1.51566 5.0585,-0.78397 9.85634,-2.35401 14.60491,-4.20167 4.99722,-2.17646 10.13395,-4.08003 15.33233,-5.73264 4.64737,-1.72276 9.58138,-2.56951 14.25838,-4.17767 4.7247,-1.30137 9.40321,-2.79052 14.18015,-3.90113 4.88126,-0.67447 9.58387,-1.93902 14.3537,-3.11855 5.27331,-1.13767 10.7112,-1.11773 15.97945,-2.2143 5.96991,-1.17767 11.96432,-1.96864 17.88841,-3.36133 5.71402,-1.28065 11.53439,-1.95065 17.35372,-2.52799 5.0386,-0.4794 10.09503,-0.72506 15.14578,-1.03548 5.76161,-0.31569 11.51842,-0.71012 17.27813,-1.05695 5.28853,-0.56016 10.62423,-0.24346 15.84928,0.6989 5.66706,0.65938 11.30668,1.45132 16.96868,2.16911 5.4175,0.30988 10.6483,1.83455 15.97263,2.76046 4.33237,1.00242 8.31336,2.40233 12.15398,4.63777 4.59944,2.29312 9.15923,4.66692 13.89176,6.67603 4.66549,2.14718 9.45728,3.94563 14.22773,5.83276 3.7331,1.14488 7.00833,3.36432 10.49695,5.09351 4.14038,1.92106 7.96365,4.34495 11.81091,6.78715 5.01125,3.47863 10.43608,6.26574 15.65081,9.40822 4.4598,2.85579 8.80554,5.8037 12.81135,9.27253 3.39705,3.15157 5.50436,7.23722 7.53211,11.32382 2.02654,4.73973 3.42992,9.7056 5.10045,14.57263 1.72651,4.37813 2.86005,8.92363 3.60535,13.55991 0.95767,4.00348 1.98821,7.97498 2.6685,12.03868 0.56564,4.09045 1.05117,8.20876 1.02588,12.34158 -0.28366,4.35813 -0.77034,8.67287 -1.57262,12.96411 -0.5242,3.90765 -1.12982,7.79737 -1.93785,11.65812 -0.71412,3.23933 -2.09619,6.25905 -3.03525,9.42308 -1.11147,3.91597 -2.64888,7.70316 -4.01448,11.54015 -0.94908,3.61453 -2.04006,7.20904 -2.84745,10.86059 -0.30003,3.43234 -0.95996,6.79757 -1.5183,10.19264 -0.56721,3.74275 -0.26068,7.52956 -0.39453,11.29352 -0.48717,4.01507 -0.81431,8.03379 -0.86923,12.07798 7.9e-4,4.01794 0.24499,8.0303 0.48442,12.03947 0.0896,3.54363 1.32812,6.90646 2.05851,10.34854 0.4501,3.88608 1.56262,7.62716 2.45317,11.42316 0.81523,4.04198 2.15315,7.9412 3.0236,11.97322 0.49024,4.066 1.62056,7.99169 2.5428,11.9696 0.8969,4.02233 1.29984,8.12741 1.64863,12.22635 0.31527,4.03707 0.55543,8.07951 0.80475,12.12104 0.38632,4.12632 -0.33428,8.23653 -0.62143,12.34671 -0.27559,4.22945 -1.83979,8.15855 -3.74174,11.89107 -8.06408,11.03691 -20.83785,18.56001 -33.61246,23.28208 -3.63496,2.24665 -7.93162,2.63833 -11.86049,4.05047 -4.46749,1.63374 -9.21925,2.07961 -13.91512,2.56987 -4.75062,0.4699 -9.51453,0.78421 -14.27783,1.09124 -4.09875,0.25865 -8.19789,0.51088 -12.29686,0.76582 -5.14438,0.28536 -10.28837,0.57901 -15.4305,0.9027 -5.42104,0.31189 -10.83759,0.69604 -16.25522,1.06122 -4.73689,0.13495 -9.34126,0.53244 -13.94409,1.63276 -4.15474,1.04624 -8.40255,1.59523 -12.65839,2.01682 -4.03998,0.36145 -8.08944,0.60286 -12.13738,0.85449 -4.71646,0.29705 -9.43629,0.52839 -14.15267,0.8272 -4.65481,0.30484 -9.30919,0.61618 -13.96416,0.91873 -4.07515,0.26347 -8.15069,0.52094 -12.22621,0.77842 -4.31695,0.28599 -8.63704,0.51757 -12.9549,0.78839 -4.38662,0.28206 -8.77297,0.56831 -13.15963,0.84977 -4.0613,0.25959 -8.12282,0.51618 -12.18439,0.77177 -4.00745,0.41559 -7.88481,1.68212 -11.87692,2.35941 -4.03116,0.61927 -8.10261,0.9057 -12.16814,1.18815 -3.54344,-0.60327 -7.08456,-1.01853 -10.6786,-1.10006 -5.08661,0.002 -10.16727,0.31705 -15.24275,0.62369 -4.90234,0.70749 -9.70857,0.3253 -14.59784,-0.13224 -4.06637,-0.37541 -8.151,-0.26932 -12.2242,-0.10238 -4.05619,-0.64757 -8.13485,-0.98556 -12.23919,-1.04238 -4.53953,-0.24117 -9.04538,-0.89638 -13.61367,-1.02572 -5.37905,-0.73979 -10.79099,-1.11043 -16.21771,-1.15779 -5.25427,-0.2163 -10.4758,-0.81809 -15.75336,-0.89946 -5.56835,0.32777 -11.0922,-0.41456 -16.64199,-0.73046 -4.40614,0.1487 -8.70176,-0.8122 -13.07292,-1.19044 -3.99687,-0.27264 -8.00355,-0.0772 -11.99812,0.12911 -4.41796,0.25097 -8.83487,0.5165 -13.25048,0.8062 -4.29948,0.28619 -8.59937,0.5664 -12.89952,0.84222 -4.04659,0.25866 -8.09344,0.51332 -12.14028,0.76799 -3.47611,0.83889 -6.63863,2.43651 -10.0155,3.55009 -3.77078,1.65614 -7.53656,3.38193 -11.44247,4.70747 -9.22557,4.92347 -20.22077,12.80466 19.9975,-13.45774 0.44695,-0.29186 -0.88004,0.60456 -1.32627,0.89753 -26.40994,17.3391 -16.21306,13.71656 -27.61906,17.60364 -3.50315,1.60378 -7.00287,3.07233 -10.53049,4.63588 -4.39544,2.2109 -9.12815,3.59986 -13.64378,5.50182 -4.61173,1.47608 -9.3385,2.37203 -13.9713,3.76385 -4.08977,1.21574 -8.32613,1.73677 -12.55824,2.14622 -4.01804,0.50323 -7.90552,1.75355 -11.91991,2.42744 -3.757,0.95191 -7.45727,0.0477 -11.21808,-0.29526 -3.73454,-0.26423 -7.4801,-0.0905 -11.21391,0.0888 -4.01446,0.21405 -8.026,0.47852 -12.03787,0.7356 -4.129,0.57444 -8.20663,-0.30659 -12.32123,-0.61695 -4.46412,-1.12732 -9.059,-1.44574 -13.64455,-1.53688 -5.28631,-0.0136 -10.54903,-0.75755 -15.7531,-1.64539 -5.13804,-0.42164 -10.15822,-1.58786 -15.29286,-2.03403 -4.9679,-0.11553 -9.94586,-0.58177 -14.82616,-1.53551 -4.5041,-0.98796 -9.09199,-1.27972 -13.6889,-1.27715 -4.16249,0.39467 -8.25096,-0.47066 -12.39082,-0.78034 -4.04868,-0.37048 -8.11066,0.30157 -12.13387,-0.2217 -4.01459,-0.64806 -8.07274,-0.77912 -12.13023,-0.73742 -4.09393,0.0879 -8.17942,0.37886 -12.26725,0.60115 -4.62477,0.2694 -9.24495,0.61035 -13.86996,0.87485 -5.03193,0.31064 -10.06404,0.61589 -15.09464,0.94789 -4.9231,0.355 -9.85148,0.62046 -14.77978,0.8897 -6.12122,0.38621 -12.24284,0.76544 -18.36489,1.13827 -6.28434,0.42132 -12.57262,0.78007 -18.85782,1.18764 -5.9784,0.37922 -11.95662,0.76245 -17.93355,1.16452 -6.12801,0.7813 -12.21999,-0.18622 -18.29542,-0.92556 -8.03102,-1.11297 -15.92126,-2.71841 -23.536682,-5.52856 -5.627031,-1.55451 -9.639049,-4.92538 -13.11248,-9.43132 -2.685833,-3.85182 -4.795475,-8.02741 -6.889667,-12.21359 -2.595652,-5.75645 -3.805143,-11.99883 -5.673187,-18.005 -1.952009,-5.53443 -2.960842,-11.31262 -4.346387,-16.99182 -1.57998,-5.21752 -2.260616,-10.63435 -2.887507,-16.03085 -0.184984,-6.51824 0.236802,-13.03049 0.226345,-19.55198 0.292997,-6.84922 0.503857,-13.70804 1.210479,-20.52948 0.455181,-5.60287 0.863137,-11.19858 1.472951,-16.78773 0.432726,-5.02843 0.410737,-10.04695 1.296742,-15.02797 1.022684,-4.61902 2.2835,-9.17516 3.053931,-13.84596 0.391139,-4.38408 0.863521,-8.75001 1.651474,-13.08344 1.12162,-4.56151 2.392686,-9.05553 3.032314,-13.71788 0.476627,-4.13682 0.313071,-8.30482 0.115352,-12.45269 -0.173514,-3.93472 -0.705788,-7.84787 -0.332071,-11.78127 0.589181,-3.53828 0.756434,-7.1093 0.750782,-10.68946 -0.06204,-3.97298 -0.316081,-7.93962 -0.560081,-11.9046 -0.15611,-4.03294 -1.370049,-7.91865 -2.138408,-11.86117 -1.089315,-3.35759 -2.112121,-6.73545 -3.319755,-10.05347 -1.164062,-3.43493 -3.700121,-5.54453 -6.422639,-7.67643 -1.803685,-1.07058 -3.791187,-1.83989 -5.771499,-2.52954 0,0 23.757294,-18.0186 23.757294,-18.0186 l 0,0 c 2.209202,0.88881 4.464121,1.74532 6.353714,3.23775 3.123563,2.47062 5.731981,5.33834 7.27573,9.08245 1.294527,3.46628 2.415985,6.97398 3.554485,10.49671 0.73047,4.06961 2.01639,8.04999 2.33039,12.17216 0.25397,4.00405 0.51799,8.00845 0.65622,12.01857 0.0889,3.68225 0.1196,7.38459 -0.48979,11.03068 -0.64368,3.80186 -0.34151,7.51828 -0.0127,11.35947 0.23069,4.30421 0.4419,8.62475 0.0793,12.92876 -0.50591,4.7464 -1.57537,9.3473 -2.85735,13.93975 -1.09134,4.22476 -1.47446,8.60611 -1.803059,12.9457 -0.648703,4.74113 -1.790712,9.37431 -2.94617,14.01324 -1.29174,4.84958 -1.259997,9.80431 -1.500356,14.78854 -0.653683,5.61831 -1.246271,11.21186 -1.632083,16.85616 -0.734513,6.74967 -1.114419,13.5019 -1.46977,20.28491 0.121924,6.40795 -0.03833,12.80215 -0.221028,19.20598 0.557886,5.26892 1.257595,10.53745 2.788145,15.62747 1.433903,5.62851 1.990651,11.48332 4.051055,16.96301 1.863076,5.82592 3.091536,11.88041 5.583986,17.48124 2.0703,3.98549 4.1245,7.97628 6.66327,11.69378 3.1403,4.02073 6.77179,6.87078 11.78006,8.34232 7.48788,2.66007 15.29892,3.97524 23.17085,4.94633 6.04402,0.65064 12.08254,1.0514 18.14937,0.37246 5.94734,-0.34802 11.89352,-0.7156 17.83942,-1.08666 6.28586,-0.38344 12.56867,-0.81589 18.8554,-1.18564 6.13638,-0.39879 12.27315,-0.79108 18.4104,-1.17589 4.9601,-0.35232 9.91973,-0.70961 14.88533,-0.97731 5.03682,-0.30194 10.0717,-0.6318 15.10678,-0.96088 4.63279,-0.32451 9.26987,-0.58274 13.90364,-0.8929 4.14058,-0.2796 8.28844,-0.50866 12.44005,-0.49088 4.10438,0.0785 8.18045,0.43914 12.25846,0.90127 4.05184,0.0547 8.11432,-0.18519 12.15562,0.25043 4.07969,0.4023 8.13778,0.85533 12.2477,0.63902 4.6677,0.18166 9.28874,0.75566 13.8685,1.69005 4.8877,0.67488 9.79019,1.12432 14.71679,1.38491 5.14698,0.61343 10.23613,1.64777 15.39474,2.19107 5.15012,0.84647 10.3624,1.29155 15.58442,1.2954 4.62902,0.26062 9.20304,0.88976 13.78117,1.60572 4.01793,0.38208 8.01275,0.8226 12.04579,0.27014 4.02799,-0.25548 8.05599,-0.51938 12.08864,-0.6916 3.84235,-0.13436 7.69737,-0.21694 11.52767,0.19551 3.58541,0.3846 7.07788,0.66866 10.62173,-0.30557 4.00916,-0.8204 7.95583,-2.01112 12.06139,-2.25946 4.12034,-0.51363 8.20835,-1.24139 12.17651,-2.49559 4.606,-1.29347 9.36691,-2.0682 13.79391,-3.95451 4.60953,-1.64482 9.07373,-3.60066 13.5401,-5.60003 3.56121,-1.58829 7.13746,-3.12595 10.6788,-4.75935 9.51217,-5.30777 2.00249,-1.16497 -21.85761,14.69667 -0.44918,0.2986 0.88871,-0.61159 1.33936,-0.90795 9.43419,-6.20414 18.65628,-14.37195 29.49187,-18.61425 3.84071,-1.55678 7.64429,-3.20601 11.50308,-4.71675 3.40101,-1.32398 6.84551,-2.69896 10.5364,-2.89132 4.0436,-0.25435 8.0872,-0.50871 12.1309,-0.76139 4.28124,-0.26741 8.5626,-0.53283 12.8439,-0.79925 4.44988,-0.27942 8.89712,-0.60738 13.35119,-0.81313 4.08708,-0.15199 8.18825,-0.23804 12.26152,0.21778 4.30272,0.50665 8.58347,1.13163 12.92685,1.1793 5.48127,0.43738 10.94879,0.88904 16.45521,0.71216 5.30166,0.1689 10.57178,0.71975 15.87432,0.80704 5.41738,0.22568 10.79573,0.85941 16.20346,1.21603 4.58164,0.21206 9.12572,0.88052 13.71499,0.91675 4.05457,0.1892 8.07034,0.78999 12.12469,0.89845 4.14598,-0.0905 8.29573,-0.0461 12.42249,0.41585 4.74255,0.43628 9.44512,0.31543 14.19125,-0.1134 5.20257,-0.29343 10.41257,-0.63752 15.62588,-0.55251 3.48576,0.21078 6.93105,0.87862 10.42179,0.86276 4.00153,-0.31804 8.00897,-0.66936 11.95434,-1.4373 4.01588,-0.82047 7.98292,-2.02297 12.11277,-2.08418 4.0569,-0.25495 8.1138,-0.50983 12.17095,-0.76091 4.36756,-0.26984 8.73547,-0.53389 13.10308,-0.80293 4.34233,-0.27426 8.68199,-0.58753 13.02532,-0.84663 4.06791,-0.25553 8.13583,-0.51103 12.20421,-0.75899 4.61777,-0.28048 9.23607,-0.55186 13.85422,-0.82585 4.76273,-0.29271 9.52091,-0.64835 14.28372,-0.93946 4.01863,-0.2599 8.03981,-0.51396 12.04329,-0.95778 4.17748,-0.51163 8.31717,-1.23765 12.41712,-2.1951 4.6918,-0.86662 9.45685,-0.97491 14.20981,-1.29188 5.38576,-0.31458 10.77279,-0.61049 16.15526,-0.97827 5.20222,-0.32669 10.40245,-0.68439 15.60267,-1.04119 4.08823,-0.25126 8.17678,-0.49733 12.26515,-0.74609 4.69649,-0.29455 9.39616,-0.58629 14.07225,-1.12666 4.65391,-0.6089 9.24905,-1.47971 13.67523,-3.0889 4.0265,-1.07896 7.94599,-2.37362 11.65589,-4.31351 9.02941,-4.66725 21.56238,-14.4818 -19.4272,13.28062 -1.87573,1.27043 5.9362,-3.14123 4.21125,-3.24789 2.38731,-3.04657 3.80613,-6.81713 4.51886,-10.60269 0.19748,-4.02212 0.9502,-8.01912 0.79894,-12.03427 -0.24724,-4.02435 -0.48641,-8.04934 -0.77506,-12.07099 -0.30735,-3.97484 -0.63718,-7.95902 -1.4274,-11.87307 -0.87208,-4.00963 -2.17899,-7.91507 -2.57232,-12.0159 -0.78561,-4.03761 -2.12983,-7.90626 -2.99425,-11.91544 -0.84722,-3.82344 -2.14281,-7.53609 -2.54064,-11.44657 -0.71018,-3.59207 -2.04479,-7.07141 -2.22282,-10.742 -0.25185,-4.06573 -0.51119,-8.13313 -0.58065,-12.20702 -0.0201,-4.10029 0.12998,-8.20004 0.75621,-12.25973 0.46549,-3.78197 -0.20722,-7.60966 0.23978,-11.40902 0.38237,-3.48156 1.46442,-6.79977 1.46577,-10.32013 0.57538,-3.86343 2.02028,-7.45185 2.72306,-11.28803 1.22596,-3.79029 2.62728,-7.50997 4.0372,-11.22621 0.61012,-3.36105 2.15042,-6.28195 3.01587,-9.56618 1.3439,-3.63051 1.56874,-7.61944 2.10794,-11.43007 0.75966,-4.21104 1.6603,-8.33152 1.77395,-12.63395 0.41411,-3.93086 -0.34713,-7.88931 -0.71189,-11.80607 -0.607,-4.0886 -1.53705,-8.09861 -2.66586,-12.0751 -0.60378,-4.49128 -1.53928,-8.92046 -3.18668,-13.15938 -1.67424,-4.72377 -3.01488,-9.57045 -5.00768,-14.17926 -1.87903,-3.7166 -3.65553,-7.53403 -6.81853,-10.37748 -3.90523,-3.30096 -8.06454,-6.24985 -12.40533,-8.95531 -5.24027,-3.13466 -10.57528,-6.11183 -15.7217,-9.403 -3.86134,-2.32281 -7.76206,-4.53016 -11.82822,-6.48031 -3.3693,-1.7818 -6.71414,-3.65888 -10.32004,-4.92379 -4.70651,-2.03366 -9.48574,-3.88793 -14.17455,-5.96537 -4.74047,-2.18884 -9.44054,-4.47186 -14.10656,-6.81284 -3.65473,-1.83602 -7.52025,-3.03787 -11.50134,-3.97012 -5.2695,-1.05474 -10.52513,-2.23071 -15.89818,-2.64042 -5.65206,-0.8483 -11.32071,-1.46919 -16.98874,-2.19229 -5.12395,-0.59371 -10.25554,-0.82089 -15.39907,-0.26386 -5.77132,0.37221 -11.54602,0.69132 -17.31574,1.0888 -5.03334,0.32075 -10.0656,0.67059 -15.08789,1.136 -5.72969,0.5947 -11.4384,1.38912 -17.04857,2.72691 -5.97843,1.25827 -12.03666,2.06859 -18.02401,3.28809 -5.33033,0.73571 -10.73473,1.08924 -15.95373,2.48263 -4.72284,1.19489 -9.51341,1.96549 -14.25764,3.06055 -4.7179,1.32814 -9.45602,2.5834 -14.13703,4.03784 -4.76592,1.27471 -9.48538,2.6635 -14.17323,4.20489 -5.14774,1.79658 -10.25064,3.71662 -15.27996,5.8227 -4.86061,1.72534 -9.85991,2.95285 -14.93089,3.88834 -4.23188,0.80768 -8.50985,1.01961 -12.80642,1.256 -4.04698,0.25167 -8.09572,0.51247 -12.15105,0.57568 -4.12946,0.01 -8.25642,-0.17246 -12.33514,-0.87135 -4.0627,-0.55174 -8.17846,-0.53422 -12.22554,-1.24388 -4.07137,-0.54668 -8.19768,-0.51496 -12.24765,-1.26403 -4.09941,-0.61347 -8.29543,-0.69188 -12.26627,-2.00709 -3.77625,-1.19172 -7.57003,-2.33777 -11.1632,-4.02914 -3.33582,-1.62485 -6.79863,-2.91262 -10.25806,-4.24834 -2.9354,-1.32136 -5.73609,-2.92672 -8.5381,-4.50636 -3.77615,-1.77465 -7.59639,-3.49308 -11.50392,-4.95012 -3.69863,-1.22438 -7.38502,-2.5249 -11.16235,-3.47856 -5.11053,-0.99257 -10.27991,-1.76419 -15.44717,-2.38739 -5.76394,-0.74605 -11.57094,-1.0811 -17.36069,-1.56938 -5.24027,-0.17275 -10.48079,-0.85545 -15.72209,-0.38536 -5.87213,0.39127 -11.75173,0.71098 -17.60128,1.37972 -5.47997,0.69172 -10.92762,1.56147 -16.16955,3.37087 -4.76084,1.13101 -9.54335,2.19423 -14.37432,2.98108 -4.09347,0.91299 -7.82965,2.56655 -11.70985,4.11088 -4.8598,1.55443 -9.7685,2.98973 -14.92296,3.03931 -4.30354,0.28326 -8.60604,0.58176 -12.91231,0.8226 -5.17562,0.30506 -10.35227,0.59174 -15.52817,0.89171 -7.21111,0.43987 -14.42522,0.83032 -21.63442,1.30253 -8.49604,0.5062 -16.99423,0.98859 -25.47898,1.6651 -7.42483,0.63649 -14.87976,1.21865 -22.19166,2.72222 -4.69549,0.96845 -9.40773,1.61093 -14.21157,1.699 -4.57232,0.25086 -9.16331,0.5538 -13.74067,0.27811 -4.24111,-0.41464 -8.3453,-1.36281 -12.39751,-2.68528 -3.85515,-1.04415 -7.68432,-2.16605 -11.61039,-2.9284 -4.38997,-1.4485 -8.453,-3.71112 -12.84954,-5.16302 -6.23226,-2.39756 -12.34904,-5.17643 -18.93904,-6.49368 -5.04065,-1.37486 -10.09667,-2.78986 -15.31791,-3.28382 -5.19627,-0.37829 -10.3533,-0.29588 -15.53831,0.28599 -4.59623,0.39951 -9.18988,0.82634 -13.75325,1.51996 -4.60485,0.61214 -9.16593,0.92028 -13.78908,0.19048 -3.83633,-0.0719 -7.69,0.0189 -11.49309,-0.59718 -3.68664,-0.50152 -7.32546,-0.39121 -11.03067,-0.033 -4.03421,0.23133 -8.07043,0.43663 -12.100225,0.73752 -3.959434,0.35255 -7.987487,0.73859 -11.619282,2.4896 -9.585471,5.49244 -3.03264,1.79462 20.769667,-14.16975 0.6318,-0.42376 -1.27642,0.83362 -1.86441,1.31636 -1.54238,1.26631 -2.05571,1.9998 -3.31268,3.54771 -0.492563,0.60659 -0.975028,1.2213 -1.462538,1.83195 -2.621174,3.43618 -5.406688,6.87418 -7.006434,10.91654 -1.24625,3.78867 -2.635281,7.51942 -3.493869,11.42379 -1.124411,3.05235 -1.929807,6.21792 -2.481558,9.41375 -0.278362,0.9883 -0.71157,1.9339 -0.923732,2.93849 -0.455383,2.15626 -0.324548,4.46629 -1.389824,6.48851 -1.381856,3.12727 -1.415956,6.72397 -1.014544,10.06953 0.378412,3.5204 0.832911,7.05648 2.086739,10.39251 1.464784,3.99995 2.272774,8.1711 3.844234,12.13978 1.63812,4.45173 2.849896,9.0525 4.077519,13.62939 0,0 -25.493886,15.76493 -25.493886,15.76493 z"
       inkscape:connector-curvature="0" />
    <path
       id="path3018"
       d="m 90.128189,844.73447 c 0.79756,7.82975 3.86846,15.30202 7.03396,22.44222 2.40479,5.14981 4.591121,10.70961 9.316241,14.12948 7.02255,3.38729 14.87559,2.10437 22.2372,0.76145 18.34003,-4.17372 36.70128,-7.94997 55.35094,-10.44083 14.47689,-1.87739 29.12945,-1.91269 43.63704,-3.40203 5.86677,-0.60227 13.34149,-1.94675 19.19943,-2.93025 11.37558,-2.43017 22.87095,-4.77603 33.91172,-8.4933 7.042,-2.06469 14.28835,-3.40723 21.50051,-4.74092 7.16837,-1.23168 14.31006,-2.22124 21.56854,-1.55854 6.04179,1.05661 10.43414,5.21913 14.75221,9.25286 7.83104,6.84656 15.38391,13.99737 22.95435,21.12861 10.40284,10.74774 21.36267,20.88454 32.76378,30.55962 9.75943,7.39675 21.22796,11.47965 33.36558,12.38557 9.81143,-0.10271 19.20457,-3.04729 28.7858,-4.76953 12.33892,-2.06979 24.59904,-4.56277 36.90791,-6.80124 15.38773,-3.0544 30.8211,-5.89828 46.09407,-9.49337 18.54159,-4.68375 36.65689,-10.81883 54.62942,-17.31003 12.24996,-4.45402 24.89833,-7.67384 37.25034,-11.79908 6.32569,-2.91178 13.1365,-4.44014 19.69443,-6.69406 5.40186,-1.91556 9.42641,-2.83911 15.12129,-2.26111 5.56757,0.34126 9.44087,4.65416 13.0326,8.48514 4.00226,5.01817 8.52074,9.37276 13.42776,13.45961 3.3075,2.5036 7.31828,3.76446 11.35353,4.49716 9.0771,1.30182 18.22114,1.07633 27.342,0.56919 10.37672,-0.56227 20.74108,-1.499 31.04711,-2.8361 10.44421,-1.00492 20.63372,-3.60293 30.84672,-5.88809 7.80253,-2.06124 15.38039,-4.85402 22.78272,-8.04923 7.12257,-3.75009 14.6194,-6.29839 22.47466,-7.95126 6.40637,-2.38994 12.21881,-0.53465 18.16872,2.10306 5.95831,2.71444 11.74115,5.75309 17.38455,9.0702 5.03888,3.20514 8.9571,7.86091 13.01881,12.17904 4.01123,3.98053 7.68103,8.24133 11.26012,12.60619 2.95331,3.198 5.11796,7.19511 8.64259,9.81918 2.91645,2.43837 6.51589,3.04363 10.1786,3.38972 4.67809,-0.0928 8.66708,-2.40893 12.95228,-3.9541 -6.18833,3.84589 12.78736,-6.60512 6.33423,-2.88991 -46.62887,26.84529 -27.4565,17.87171 -20.86222,11.11186 1.95807,-2.56465 2.13362,-5.72183 2.49409,-8.80883 0,0 26.29426,-13.17403 26.29426,-13.17403 l 0,0 c -0.0704,3.43287 -0.0231,6.95849 -1.43541,10.16494 -7.10539,12.50365 -23.42023,16.28349 -36.18764,21.88405 -4.46491,1.73657 -8.95203,3.49997 -13.85287,2.82365 -4.13181,-0.66152 -7.99136,-1.92959 -11.20571,-4.73459 -3.36846,-3.07389 -5.73747,-7.0078 -8.73973,-10.41947 -3.52656,-4.31495 -7.12114,-8.54539 -11.0816,-12.47665 -3.88559,-4.13191 -7.6665,-8.53226 -12.60198,-11.44795 -5.51958,-3.24297 -11.10923,-6.36523 -17.05128,-8.78394 -6.09043,-2.27235 -10.79423,-2.69547 -17.08297,-0.67821 -7.70938,1.84926 -14.93768,4.8502 -22.06933,8.29389 -7.4349,3.0475 -15.04321,5.70356 -22.89275,7.47506 -10.23285,2.27012 -20.48546,4.57029 -30.93467,5.60568 -10.34997,1.21714 -20.7303,2.21531 -31.14528,2.65512 -9.44488,0.46618 -18.96113,0.58415 -28.34582,-0.76937 -4.48396,-1.0213 -8.77335,-2.55889 -12.23781,-5.70997 -4.81303,-4.26741 -9.11493,-8.95358 -13.34488,-13.80099 -3.50204,-3.37787 -6.97911,-6.55123 -12.11537,-6.48838 -4.92816,-0.0619 -9.60158,1.43477 -14.24137,2.9849 -6.5252,2.01389 -13.04844,4.02296 -19.43229,6.45857 -12.10944,3.61398 -24.32057,6.90315 -36.23646,11.14264 -18.04221,6.36726 -36.22377,12.36849 -54.78983,17.04322 -15.44204,3.66262 -31.029,6.68108 -46.60548,9.71274 -12.42512,2.37198 -24.82273,4.87857 -37.27775,7.09285 -9.70202,1.94147 -19.36262,4.82764 -29.36971,4.13776 -12.37267,-1.74688 -23.94199,-6.33684 -33.79471,-14.16421 -11.3563,-9.78617 -22.2415,-20.06729 -32.94034,-30.56518 -7.81456,-6.97202 -15.63759,-13.92889 -23.68105,-20.63871 -4.10572,-3.51861 -8.22501,-7.08628 -13.85849,-7.5265 -6.97511,-0.39855 -13.90119,0.70752 -20.75473,1.92999 -7.20858,1.4623 -14.42978,2.94679 -21.47059,5.09899 -10.86619,2.93807 -21.85239,5.4332 -32.96138,7.27094 -6.6136,0.9726 -12.36074,1.90466 -19.05406,2.51233 -14.4656,1.31328 -29.04148,1.5038 -43.44853,3.5041 -19.01356,2.71248 -37.65775,6.96065 -56.35625,11.29614 -8.224021,1.26545 -17.003521,2.45914 -24.430441,-2.1971 -4.848193,-4.05205 -7.089143,-9.98976 -9.524167,-15.68729 -3.273359,-7.51789 -6.184132,-15.19254 -8.408356,-23.09232 0,0 26.713193,-13.61105 26.713193,-13.61105 z"
       inkscape:connector-curvature="0" />
    <g
       id="g2992"
       transform="translate(16.162441,-12.12183)">
      <path
         transform="translate(0,287.36218)"
         inkscape:connector-curvature="0"
         d="m 112.21732,161.85405 c 5.572,-7.02087 12.35137,-12.93104 19.03584,-18.85217 9.20932,-8.13669 19.07118,-15.47544 28.44022,-23.41718 7.70703,-6.82005 15.25887,-13.81261 23.57778,-19.88626 15.34279,-9.893824 30.29988,-21.856984 48.53986,-25.10032 9.69869,-1.460695 19.43573,-0.629163 29.01736,1.155644 9.46546,2.032093 18.36424,5.615302 26.52382,10.77979 5.52827,3.595185 10.44865,7.976116 15.64264,12.011513 7.41808,4.102963 15.50398,6.793933 23.37241,9.882853 8.77353,3.93793 17.09742,8.76893 25.60516,13.22708 5.94231,3.00928 10.42426,7.59546 14.43717,12.79368 4.93504,7.19063 10.13317,14.18238 15.92719,20.70258 5.02334,5.53482 10.60417,10.47757 16.4831,15.07663 6.06796,5.14884 13.04769,7.87471 20.75716,9.35794 8.82513,1.55684 17.40912,-0.25628 25.8138,-2.87569 12.63823,-4.54127 24.50434,-10.91327 36.51532,-16.85754 9.9488,-5.12974 20.10642,-9.85214 30.72839,-13.41026 5.27559,-2.08476 10.7256,-3.74922 15.95988,-5.92358 2.10737,-0.65809 4.0547,-1.67772 6.09888,-2.50018 0,0 -23.34329,18.39864 -23.34329,18.39864 l 0,0 c -2.02114,0.85691 -4.05327,1.68342 -6.12269,2.41871 -5.22156,1.82887 -10.3847,3.81821 -15.64274,5.5445 -10.29227,3.60838 -20.15234,8.25484 -29.86248,13.20521 -12.1819,6.05181 -24.28545,12.45514 -37.2209,16.77533 -8.83801,2.44278 -17.83593,3.906 -26.94657,1.91117 -7.96612,-1.89248 -15.19534,-5.13707 -21.51761,-10.45545 -5.96605,-4.75421 -11.7543,-9.76094 -16.71337,-15.58611 -5.63025,-6.69388 -10.85944,-13.71062 -16.11359,-20.7009 -3.97535,-4.67542 -8.22382,-8.95934 -13.69478,-11.90607 -8.23094,-4.66113 -16.48613,-9.3319 -25.19874,-13.05011 -8.18954,-3.15768 -16.72803,-5.72282 -24.26448,-10.3105 -5.09542,-3.95332 -9.84838,-8.33763 -15.21412,-11.94011 -7.88755,-4.92039 -16.58296,-8.167665 -25.71725,-9.95521 -9.46948,-1.49743 -19.09007,-2.06211 -28.55557,-0.121709 -3.50138,0.876829 -4.40988,0.962645 -7.71287,2.335544 -1.24994,0.519539 -4.8288,2.436839 -3.67217,1.733655 39.83828,-24.220072 21.75082,-12.674671 13.0493,-7.253039 -8.53152,5.862328 -16.1962,12.795269 -23.87627,19.721169 -9.29912,8.03371 -19.23905,15.26726 -28.47803,23.37913 -6.33608,5.61592 -12.89808,11.11808 -18.12459,17.82655 0,0 -27.53317,11.86507 -27.53317,11.86507 z"
         id="path3016" />
      <path
         transform="translate(0,287.36218)"
         inkscape:connector-curvature="0"
         d="m 524.29421,143.559 c 6.55146,-1.55434 12.93431,-3.63676 19.22035,-6.09484 1.36126,-0.57383 2.73778,-1.11274 4.08379,-1.72149 3.25429,-1.4718 4.35553,-2.11714 7.41886,-3.85825 1.15074,-0.65405 4.58879,-2.6409 3.43757,-1.9877 -22.59064,12.81794 -29.10453,17.30629 -19.46308,10.80381 4.53956,-3.32967 9.37454,-6.20792 14.13622,-9.19982 10.39404,-6.40635 20.9185,-12.66827 31.82928,-18.06801 1.82216,-0.90179 3.37314,-1.87119 5.30638,-2.56496 4.65333,-1.55015 7.74617,-0.73367 12.12276,1.07917 8.13127,4.85008 16.01964,10.14207 23.94393,15.3353 10.62173,6.72701 20.59557,14.40441 30.32808,22.34547 5.59688,4.46352 10.01006,8.40613 17.49079,7.42265 7.95087,-2.38899 15.4513,-6.01664 22.91736,-9.60381 11.39499,-4.73284 44.7644,-24.14651 -1.44427,2.30447 6.28821,-3.35681 11.36719,-8.22775 16.36552,-13.20973 5.91966,-5.86232 11.99758,-11.5562 18.09478,-17.23226 5.1994,-4.67849 11.38275,-7.99718 17.27933,-11.67906 5.21832,-3.17423 10.39378,-6.40458 15.47023,-9.800871 12.07823,-7.015235 24.90494,-22.907368 38.98596,-17.842462 5.87079,3.871169 10.17953,9.59741 14.20737,15.257141 6.5904,9.370122 13.04013,18.834772 19.52299,28.278942 6.36925,9.30574 13.57227,17.98894 21.3576,26.13709 4.3867,4.46713 8.54389,8.31797 15.12952,7.32573 0.78553,-0.28035 1.59362,-0.5041 2.35659,-0.84105 1.45726,-0.64359 8.69076,-4.87024 4.86725,-2.68391 -40.46178,23.1366 -25.19715,15.46984 -16.80628,8.61104 6.6538,-6.39445 12.6783,-13.44685 18.7532,-20.39238 4.35701,-5.23035 8.72262,-10.5024 12.07522,-16.44813 2.01673,-4.53312 3.00904,-9.45871 4.34279,-14.2275 3.92391,-12.277336 9.66678,-9.68849 28.73747,-18.178181 0.63665,-0.283416 5.42714,5.614003 5.94371,6.231776 5.05095,6.190145 9.92884,12.519745 14.77148,18.873735 3.33364,4.57398 7.33725,8.67272 9.84796,13.78181 1.47666,2.6168 2.17712,4.95862 1.72656,7.92079 0,0 -27.24881,12.30416 -27.24881,12.30416 l 0,0 c 2.61,-1.54458 0.44857,-3.34452 -0.36926,-5.56538 -2.22248,-4.9869 -6.03457,-9.04447 -9.12898,-13.49387 -4.73543,-6.3471 -9.48851,-12.71213 -14.80462,-18.58919 -0.95125,-1.01693 -2.58034,-2.96039 -3.90871,-3.72644 -0.33417,-0.19272 -1.46218,-0.0199 -1.13525,-0.22467 8.08822,-5.06541 16.49223,-9.6092 24.67624,-14.518336 0.43026,-0.258089 -1.04919,0.195794 -1.39892,0.555546 -0.50082,0.515172 -0.66553,1.273569 -0.9983,1.910353 -1.3376,4.937207 -2.52864,9.929977 -4.0545,14.796547 -3.14532,6.39569 -7.82152,11.81227 -12.33586,17.27835 -5.9103,7.05153 -12.21749,13.80803 -18.35332,20.66203 -9.88379,9.47249 -19.76346,13.16193 -33.34068,20.90866 -1.47147,0.83957 -3.72163,1.78359 -5.40137,2.15913 -0.90036,0.20129 -1.83012,0.23512 -2.74518,0.35267 -6.89172,-0.62681 -11.64852,-4.57752 -16.07587,-9.69939 -7.44285,-8.59064 -14.76703,-17.30207 -21.18657,-26.69906 -6.46835,-9.43049 -13.00433,-18.81242 -19.86001,-27.96836 -3.77994,-4.95544 -7.84754,-10.516168 -13.63898,-13.198873 -1.72234,-0.188666 -1.97461,-0.387105 -3.67907,0.112403 -0.66216,0.194053 -2.50767,1.139187 -1.91521,0.785487 41.4976,-24.77404 27.39858,-16.215909 18.59882,-10.666309 -5.21939,3.255558 -10.18317,6.92645 -15.60385,9.868243 -5.81424,3.802169 -12.00766,6.999699 -17.54656,11.222319 -6.13201,5.65029 -12.28851,11.26664 -18.21304,17.13258 -4.90126,5.09075 -9.69465,10.37961 -15.96287,13.8308 -16.01668,9.28807 -31.65325,18.78838 -48.55865,26.29335 -7.73977,3.65038 -15.62274,7.86441 -24.18835,9.03069 -7.6054,-0.52763 -12.63342,-4.5073 -18.09772,-9.56238 -9.39979,-8.13022 -19.34316,-15.65438 -29.95386,-22.14438 -7.95553,-4.98328 -15.86442,-10.24817 -24.36313,-14.23917 -3.85941,-1.08498 -7.31397,-0.99289 -10.9971,0.79718 -1.7217,0.8421 -3.43119,1.70918 -5.14446,2.56785 -0.67393,0.33776 -2.65666,1.42479 -2.0063,1.04362 27.15787,-15.91687 30.48323,-18.04346 21.0371,-12.10445 -4.90722,2.80841 -9.71373,5.85322 -14.33044,9.11445 -14.49023,9.67922 -29.64972,18.88352 -45.84017,25.47942 -6.6107,2.4513 -13.33175,4.53258 -20.18087,6.2137 0,0 23.89741,-18.09379 23.89741,-18.09379 z"
         id="path3020" />
      <path
         inkscape:connector-curvature="0"
         d="m 124.04489,444.9803 c -3.27441,-0.43751 -6.75434,0.44147 -9.97638,-0.46057 -1.87677,-0.52543 -3.26128,-1.56224 -4.87702,-2.58064 -4.95248,-3.52303 -8.84227,-8.16529 -12.44114,-13.00373 C 91.9178,422.14009 86.476119,415.82087 80.564128,409.95039 74.313831,404.84296 68.379064,398.4489 60.466702,396.0823 c -2.634052,-0.36562 -4.457236,0.47357 -6.58032,1.86006 -0.593026,0.38728 -2.391615,1.51664 -1.775362,1.1675 23.361666,-13.23544 30.891,-19.09955 22.018021,-12.31981 -2.892463,2.92012 -5.37942,6.25388 -7.846913,9.54248 -1.427514,2.08697 -2.899567,4.14447 -4.240645,6.28802 0,0 -27.207993,12.204 -27.207993,12.204 l 0,0 c 1.142412,-2.43233 2.765562,-4.41709 4.141345,-6.70637 2.491697,-3.40166 5.126387,-6.66152 7.635159,-10.03968 8.430669,-9.44189 1.268095,-1.75392 28.64006,-17.64168 3.031798,-1.75977 6.390719,-1.84224 9.682652,-0.80143 7.741297,3.56162 13.980014,9.61693 20.344994,15.16022 6.00976,5.97935 11.7836,12.22972 16.76174,19.10859 3.47108,4.4574 7.16459,8.82376 11.98797,11.88084 4.50889,2.24006 9.34522,1.7826 14.27256,1.57292 0,0 -24.25508,17.62234 -24.25508,17.62234 z"
         id="path3022" />
    </g>
    <g
       transform="matrix(0.98232303,-0.18719365,0.18719365,0.98232303,1022.7167,518.30741)"
       id="g3095">
      <g
         id="g2997">
        <path
           style="fill:#000000"
           d="m 49.774888,167.84847 c -5.08374,-1.80144 -17.02279,-8.62876 -20.36897,-11.64797 -4.01505,-3.62272 -8.25805,-12.99395 -9.668,-21.35304 -0.67997,-4.03134 -0.99999,-12.03856 -0.74548,-18.6526 0.41774,-10.856 0.6905,-12.12657 4.31259,-20.088973 4.47858,-9.845192 7.57436,-14.675302 15.93459,-24.861522 3.32304,-4.04883 7.96654,-9.88098 10.31887,-12.96032 10.29975,-13.48295 16.59125,-17.68018 48.72303,-32.50447 11.718212,-5.40631 25.323782,-9.66779 56.395902,-17.6641002 13.04491,-3.35706 40.81416,-3.95175 55.72232,-1.19331 17.7367,3.2818102 42.93735,14.1587002 53.38178,23.0402002 3.025,2.57233 7.18459,5.92762 9.24352,7.45619 6.1222,4.54518 20.71461,19.84497 23.54592,24.68733 1.44712,2.475 3.88651,6.25501 5.42085,8.40004 1.53434,2.14502 2.78971,4.35562 2.78971,4.91245 0,0.55683 1.31435,3.07681 2.92077,5.59996 1.60642,2.52315 5.07055,10.887552 7.69805,18.587552 4.75499,13.934683 4.77752,14.062983 4.82923,27.500003 l 0.0519,13.5 -3.39948,5.25 c -1.86971,2.8875 -3.58478,5.25 -3.81127,5.25 -0.22649,0 -0.10819,-2.02458 0.26288,-4.49908 0.85889,-5.72747 -1.07574,-16.08476 -3.88237,-20.78473 -1.19337,-1.99841 -3.63611,-6.12709 -5.42831,-9.17483 -1.7922,-3.04775 -3.6661,-5.54136 -4.16422,-5.54136 -0.49813,0 -2.25727,-2.19662 -3.90922,-4.88137 -5.45886,-8.871783 -30.55939,-34.379165 -38.82388,-39.453175 -2.83573,-1.741 -8.46073,-5.67431 -12.5,-8.74067 -10.47584,-7.95264 -23.68607,-14.3605 -33.89393,-16.44087 l -8.45015,-1.72215 -11.5,3.0255 c -22.09508,5.81293 -30.705,9.38676 -44,18.2636 -3.025,2.01974 -7.80551,4.83825 -10.62335,6.26336 -8.22431,4.1594 -17.10812,15.80071 -21.41995,28.068642 -1.75633,4.997083 -1.98321,7.794313 -1.73833,21.432153 0.37533,20.90332 -0.56677,23.778 -11.26463,34.37231 -11.718282,11.60484 -22.828552,16.48712 -39.453752,17.33748 -5.7696,0.29511 -10.25864,0.0143 -12.50662,-0.78223 z"
           id="path3097"
           inkscape:connector-curvature="0" />
        <path
           style="fill:#000000"
           d="m 296.99689,161.75923 c 5.02356,1.96301 16.73829,9.16845 19.98626,12.29307 3.89721,3.7492 7.83851,13.25126 8.98056,21.65114 0.55077,4.05101 0.6147,12.06437 0.14892,18.6669 -0.76452,10.8371 -1.07775,12.0983 -4.95249,19.94086 -4.79096,9.69702 -8.03955,14.42571 -16.72109,24.33951 -3.45076,3.94055 -8.27828,9.6213 -10.72784,12.62388 -10.72544,13.14685 -17.14788,17.14085 -49.73707,30.93055 -11.88502,5.029 -25.61985,8.85343 -56.93167,15.85251 -13.14555,2.93839 -40.91962,2.6452 -55.73199,-0.58833 -17.62275,-3.84705 -42.462866,-15.52386 -52.618083,-24.73465 -2.941236,-2.6677 -6.991457,-6.15423 -9.000478,-7.74783 -5.973796,-4.73854 -20.069729,-20.49692 -22.744818,-25.4273 -1.367273,-2.51999 -3.684598,-6.37604 -5.149593,-8.56902 -1.464995,-2.19296 -2.649067,-4.44256 -2.63127,-4.9991 0.0178,-0.55655 -1.215335,-3.11725 -2.740288,-5.69046 -1.524953,-2.5732 -4.719965,-11.04405 -7.10001,-18.8241 -4.307172,-14.07954 -4.325589,-14.2085 -3.947791,-27.6403 l 0.379622,-13.49477 3.565547,-5.13866 c 1.961047,-2.82626 3.750752,-5.13274 3.977127,-5.1255 0.226374,0.007 0.04342,2.02701 -0.406548,4.48838 -1.041517,5.69709 0.561079,16.11093 3.216052,20.8982 1.128885,2.03554 3.438414,6.24018 5.132284,9.34365 1.693871,3.10347 3.487111,5.65571 3.984976,5.67163 0.497876,0.0159 2.185907,2.26764 3.751202,5.00382 5.172505,9.04173 29.444928,35.33835 37.543016,40.67393 2.778635,1.83074 8.275043,5.94183 12.214243,9.13573 10.2163,8.28342 23.21496,15.11023 33.35112,17.51581 l 8.39078,1.99136 11.59083,-2.65638 c 22.26959,-5.10375 30.98934,-8.40056 44.56127,-16.84792 3.08801,-1.92202 7.95617,-4.58629 10.81812,-5.92061 8.35305,-3.8944 17.60441,-15.24581 22.30615,-27.36966 1.91515,-4.93839 2.23132,-7.72694 2.42247,-21.36564 0.29299,-20.90463 1.32649,-23.74773 12.3575,-33.9947 12.08322,-11.22436 23.34386,-15.74903 39.98775,-16.06757 5.77608,-0.11055 10.25385,0.3136 12.47523,1.18157 z"
           id="path3097-1"
           inkscape:connector-curvature="0" />
      </g>
    </g>
  </g>
</svg>
